
<svg width="195px" height="41px" viewBox="618 349 195 41" version="1.1" xmlns="http://www.w3.org/2000/svg" xmlns:xlink="http://www.w3.org/1999/xlink">
    <defs>
        <polygon id="path-1" points="0 40.7218106 194.716849 40.7218106 194.716849 8.72340426e-05 0 8.72340426e-05"></polygon>
    </defs>
    <g id="Page-1" stroke="none" stroke-width="1" fill="none" fill-rule="evenodd" transform="translate(618.000000, 349.000000)">
        <path d="M74.4810068,27.9845064 C76.1073425,27.9845064 77.3200822,27.4065809 78.1201164,26.2498574 C78.9192603,25.0944426 79.3199452,23.4409213 79.3199452,21.2892936 C79.3199452,19.1385383 78.9192603,17.4981021 78.1201164,16.3692936 C77.3200822,15.2396128 76.1073425,14.6752085 74.4810068,14.6752085 C72.8546712,14.6752085 71.6410411,15.2396128 70.8418973,16.3692936 C70.041863,17.4981021 69.6420685,19.1385383 69.6420685,21.2892936 C69.6420685,23.4675277 70.0347397,25.1280277 70.8214178,26.2703574 C71.6072055,27.4135596 72.8270685,27.9845064 74.4810068,27.9845064 L74.4810068,27.9845064 Z M74.4810068,32.5014851 C71.0653904,32.5014851 68.4222055,31.5336234 66.5518973,29.5974638 C64.6811438,27.6617404 63.7462123,24.8929319 63.7462123,21.2892936 C63.7462123,19.5690383 63.9964178,18.0162723 64.4986096,16.6314319 C64.999911,15.2465915 65.7180274,14.0772191 66.6534041,13.1224426 C67.5887808,12.1685383 68.7204932,11.4353362 70.0485411,10.9245809 C71.376589,10.4138255 72.8546712,10.1582298 74.4810068,10.1582298 C76.1340548,10.1582298 77.6250479,10.4138255 78.9535411,10.9245809 C80.281589,11.4353362 81.4137466,12.1685383 82.3491233,13.1224426 C83.2840548,14.0772191 83.9959384,15.2465915 84.4838836,16.6314319 C84.9718288,18.0162723 85.2158014,19.5690383 85.2158014,21.2892936 C85.2158014,23.0374638 84.9647055,24.6037511 84.4634041,25.9881553 C83.9616575,27.3734319 83.2435411,28.5493468 82.3086096,29.5172085 C81.3732329,30.484634 80.2410753,31.2248149 78.9130274,31.7355702 C77.5845342,32.2458894 76.1073425,32.5014851 74.4810068,32.5014851 L74.4810068,32.5014851 Z" id="Fill-1" fill="#2A3D4D"></path>
        <path d="M87.4926267,10.8035 L93.022524,10.8035 L93.022524,13.7476489 C93.7272842,12.6454468 94.5811884,11.8184681 95.5842363,11.2671489 C96.586839,10.716266 97.6442021,10.4401702 98.7558801,10.4401702 C99.2981404,10.4401702 99.7451267,10.4606702 100.097729,10.5007979 C100.449887,10.5413617 100.761976,10.5884681 101.033106,10.642117 L100.341702,15.7640638 C99.6912568,15.6026809 98.8916678,15.5219894 97.9429349,15.5219894 C97.3187568,15.5219894 96.7230719,15.5965745 96.1536541,15.744 C95.5842363,15.8922979 95.0691336,16.1675213 94.6083459,16.5709787 C94.1204007,17.0010426 93.7611199,17.4851915 93.5309486,18.0225532 C93.3003322,18.5607872 93.1854692,19.1116702 93.1854692,19.6765106 L93.1854692,31.8565638 L87.4926267,31.8565638 L87.4926267,10.8035 Z" id="Fill-3" fill="#2A3D4D"></path>
        <mask id="mask-2" fill="white">
            <use xlink:href="#path-1"></use>
        </mask>
        <g id="Clip-6"></g>
        <path d="M102.537055,31.8566511 L108.229452,31.8566511 L108.229452,10.8035872 L102.537055,10.8035872 L102.537055,31.8566511 Z M102.456027,8.14164043 L108.310925,8.14164043 L108.310925,3.05982128 L102.456027,3.05982128 L102.456027,8.14164043 Z" id="Fill-5" fill="#2A3D4D" mask="url(#mask-2)"></path>
        <path d="M125.917466,20.6041138 C125.917466,19.3405287 125.775445,18.3190181 125.490514,17.5387096 C125.206027,16.7592734 124.832945,16.1608479 124.372603,15.7438691 C123.91137,15.3273266 123.396712,15.0521032 122.82774,14.9168904 C122.257877,14.7829862 121.688904,14.7153798 121.119486,14.7153798 C120.495308,14.7153798 119.905856,14.8231138 119.350685,15.0381457 C118.794623,15.2536138 118.306678,15.6029862 117.886849,16.0866989 C117.466575,16.5708479 117.134452,17.1893372 116.890925,17.9417309 C116.646952,18.6949968 116.524521,19.5952521 116.524521,20.6442415 C116.524521,22.8761245 116.951473,24.4554968 117.805377,25.3832309 C118.659281,26.3109649 119.722877,26.7741777 120.9975,26.7741777 C121.70226,26.7741777 122.359829,26.6738585 122.96976,26.4719117 C123.579692,26.2704011 124.101473,25.9476351 124.535548,25.50405 C124.968288,25.0604649 125.307979,24.4829755 125.551952,23.7698372 C125.795925,23.0580074 125.917466,22.1909011 125.917466,21.1685181 L125.917466,20.6041138 Z M117.215925,33.1871883 C117.323664,33.72455 117.480377,34.15505 117.683836,34.477816 C117.886849,34.8005819 118.157534,35.0557415 118.496781,35.2437309 C118.835582,35.4317202 119.242055,35.5599543 119.716644,35.6271245 C120.190788,35.6942947 120.766884,35.728316 121.444932,35.728316 C122.501849,35.728316 123.329041,35.5329117 123.925171,35.1434117 C124.520856,34.7530394 124.962055,34.2357415 125.246541,33.5902096 C125.531473,32.9451138 125.707329,32.2053691 125.775445,31.372284 C125.842671,30.5391989 125.876952,29.6786351 125.876952,28.7914649 L125.876952,28.145933 C125.171747,29.1678798 124.271096,29.9403372 123.173219,30.4646138 C122.074897,30.9893266 120.835,31.2510287 119.452637,31.2510287 C116.46976,31.2510287 114.240616,30.2975606 112.763425,28.3880074 C111.285788,26.4793266 110.547637,23.9111564 110.547637,20.6848053 C110.547637,19.151667 110.756884,17.7402202 111.178048,16.4495926 C111.597432,15.1594011 112.20024,14.0502202 112.986918,13.1224862 C113.773151,12.1947521 114.741918,11.4689649 115.89411,10.9446883 C117.046301,10.4204117 118.340514,10.1582734 119.777637,10.1582734 C120.916473,10.1582734 122.020582,10.3737415 123.091301,10.8033691 C124.162466,11.2338691 125.145034,12.0272628 126.039452,13.1826777 L126.039452,10.8033691 L131.569795,10.8033691 L131.569795,28.912284 C131.569795,30.6866245 131.386815,32.2655606 131.020856,33.6508372 C130.654897,35.0356777 130.071678,36.2120287 129.272089,37.1798904 C128.4725,38.1481883 127.428938,38.8800819 126.141404,39.3781883 C124.853425,39.8754223 123.288082,40.1240394 121.444932,40.1240394 C119.737123,40.1240394 118.279521,39.9827202 117.073904,39.7005181 C115.867397,39.418316 114.871027,38.987816 114.08524,38.4098904 C113.298116,37.8315287 112.695753,37.1057415 112.275479,36.2320926 C111.85476,35.3580074 111.577397,34.3430394 111.44161,33.1871883 L117.215925,33.1871883 Z" id="Fill-7" fill="#2A3D4D" mask="url(#mask-2)"></path>
        <path d="M147.061209,22.4591457 L144.540455,22.5799649 C143.34686,22.63405 142.385216,22.7553053 141.653298,22.9428585 C140.92138,23.1317202 140.358195,23.3663798 139.965524,23.6490181 C139.572408,23.9312202 139.307955,24.2609649 139.172613,24.6369436 C139.036825,25.0137947 138.969599,25.4303372 138.969599,25.8870074 C138.969599,26.5870606 139.213572,27.1379436 139.701517,27.5405287 C140.189017,27.9439862 140.86662,28.145933 141.734325,28.145933 C143.198161,28.145933 144.390866,27.8100819 145.312887,27.1379436 C145.827545,26.7610926 146.248264,26.2843585 146.573264,25.7055606 C146.898709,25.1280713 147.061209,24.4092628 147.061209,23.5482628 L147.061209,22.4591457 Z M147.183195,29.1944862 C146.342647,30.1361777 145.400592,30.9020926 144.357476,31.4935394 C143.313469,32.0841138 141.964497,32.3807096 140.311449,32.3807096 C139.362271,32.3807096 138.46162,32.2598904 137.607271,32.0173798 C136.753366,31.7753053 136.007647,31.3993266 135.371003,30.8881351 C134.733914,30.377816 134.22549,29.7257415 133.845729,28.9323479 C133.465969,28.1393904 133.276757,27.1920287 133.276757,26.0889543 C133.276757,24.6369436 133.602202,23.45405 134.252647,22.5398372 C134.903092,21.6260606 135.756997,20.9133585 136.81436,20.402167 C137.871277,19.8918479 139.05686,19.5289543 140.372442,19.3134862 C141.687134,19.0984543 143.02186,18.9641138 144.37751,18.9100287 L147.102168,18.7887734 L147.102168,17.7402202 C147.102168,16.4495926 146.742442,15.5624223 146.024325,15.0787096 C145.305764,14.5945606 144.458983,14.3524862 143.483092,14.3524862 C141.232579,14.3524862 139.94549,15.1995287 139.620045,16.8931777 L134.415592,16.4094649 C134.794462,14.2050606 135.770798,12.612167 137.343264,11.6303479 C138.914839,10.6489649 141.02912,10.1582734 143.686551,10.1582734 C145.312887,10.1582734 146.69525,10.3536777 147.83364,10.7427415 C148.972476,11.1331138 149.887373,11.6909755 150.578332,12.4167628 C151.269736,13.14255 151.771038,14.0236138 152.083127,15.0582096 C152.394325,16.0936777 152.550592,17.2565074 152.550592,18.5471351 L152.550592,31.856433 L147.183195,31.856433 L147.183195,29.1944862 Z" id="Fill-8" fill="#2A3D4D" mask="url(#mask-2)"></path>
        <path d="M155.355788,10.8035 L160.88613,10.8035 L160.88613,13.6263936 C161.671918,12.4439362 162.593938,11.5698511 163.651301,11.0050106 C164.708219,10.4401702 165.819452,10.1584043 166.985445,10.1584043 C168.530753,10.1584043 169.79113,10.4672128 170.766575,11.0857021 C171.742911,11.7046277 172.43387,12.604883 172.840342,13.7877766 C173.816678,12.4971489 174.846438,11.5698511 175.930959,11.0050106 C177.014589,10.4401702 178.208185,10.1584043 179.509075,10.1584043 C181.705274,10.1584043 183.352089,10.7568298 184.449966,11.9528085 C185.547397,13.1496596 186.096781,15.0923617 186.096781,17.7809149 L186.096781,31.8565638 L180.403938,31.8565638 L180.403938,18.5468298 C180.403938,17.7944362 180.335822,17.1824894 180.200479,16.7118617 C180.064692,16.2416702 179.881712,15.8717979 179.651541,15.6026809 C179.420925,15.3344362 179.143562,15.1460106 178.818116,15.0378404 C178.492671,14.9309787 178.153425,14.8768936 177.801267,14.8768936 C177.232295,14.8768936 176.710068,14.9715426 176.235925,15.1590957 C175.761336,15.3475213 175.293425,15.6702872 174.833082,16.1269574 C174.453322,16.5038085 174.148356,16.9338723 173.918185,17.4175851 C173.687568,17.901734 173.572705,18.4124894 173.572705,18.9502872 L173.572705,31.8565638 L167.879863,31.8565638 L167.879863,18.5468298 C167.879863,17.7944362 167.812192,17.1824894 167.676849,16.7118617 C167.540616,16.2416702 167.357637,15.8717979 167.127466,15.6026809 C166.896849,15.3344362 166.619486,15.1460106 166.294041,15.0378404 C165.968596,14.9309787 165.629349,14.8768936 165.277637,14.8768936 C164.708219,14.8768936 164.185993,14.9715426 163.712295,15.1590957 C163.23726,15.3475213 162.769795,15.6702872 162.309007,16.1269574 C161.929247,16.5038085 161.624281,16.9539362 161.39411,17.4782128 C161.163493,18.0024894 161.04863,18.5738723 161.04863,19.1923617 L161.04863,31.8565638 L155.355788,31.8565638 L155.355788,10.8035 Z" id="Fill-9" fill="#2A3D4D" mask="url(#mask-2)"></path>
        <path d="M188.942534,31.8566511 L194.635377,31.8566511 L194.635377,10.8035872 L188.942534,10.8035872 L188.942534,31.8566511 Z M188.861507,8.14164043 L194.716849,8.14164043 L194.716849,3.05982128 L188.861507,3.05982128 L188.861507,8.14164043 Z" id="Fill-10" fill="#2A3D4D" mask="url(#mask-2)"></path>
        <polygon id="Fill-11" fill="#3295B6" mask="url(#mask-2)" points="21.4295205 13.8797649 21.4295205 -4.36170213e-05 0 13.1801479 11.1933562 20.3686691"></polygon>
        <polygon id="Fill-12" fill="#3295B6" mask="url(#mask-2)" points="26.8120548 26.8420457 26.8120548 40.7218543 48.2415753 27.5416628 37.0482192 20.3531415"></polygon>
        <polygon id="Fill-13" fill="#44C7F2" mask="url(#mask-2)" points="48.2415753 27.5420117 48.2415753 13.4288521 26.8120548 0.0157457447 26.8120548 13.7786606"></polygon>
        <polygon id="Fill-14" fill="#44C7F2" mask="url(#mask-2)" points="0 13.1797989 0 27.2929585 21.4295205 40.7060649 21.4295205 26.94315"></polygon>
    </g>
</svg>