<?xml version="1.0" encoding="utf-8"?>
<!-- Generator: Adobe Illustrator 16.0.3, SVG Export Plug-In . SVG Version: 6.00 Build 0)  -->
<!DOCTYPE svg PUBLIC "-//W3C//DTD SVG 1.1//EN" "http://www.w3.org/Graphics/SVG/1.1/DTD/svg11.dtd">
<svg version="1.1" xmlns="http://www.w3.org/2000/svg" xmlns:xlink="http://www.w3.org/1999/xlink" x="0px" y="0px" width="24px"
	 height="24px" viewBox="0 0 24 24" enable-background="new 0 0 24 24" xml:space="preserve">
<g id="Outline_Icons_1_">
	<g id="Outline_Icons">
		<g>
			<path d="M18.5,13c-3.033,0-5.5,2.467-5.5,5.5c0,3.033,2.467,5.5,5.5,5.5s5.5-2.467,5.5-5.5C24,15.467,21.533,13,18.5,13z
				 M18.5,23c-2.481,0-4.5-2.019-4.5-4.5s2.019-4.5,4.5-4.5s4.5,2.019,4.5,4.5S20.981,23,18.5,23z"/>
			<path d="M21,18h-2v-2c0-0.276-0.224-0.5-0.5-0.5S18,15.724,18,16v2h-2c-0.276,0-0.5,0.224-0.5,0.5S15.724,19,16,19h2v2
				c0,0.276,0.224,0.5,0.5,0.5S19,21.276,19,21v-2h2c0.276,0,0.5-0.224,0.5-0.5S21.276,18,21,18z"/>
			<path d="M11,19H1.015c0.033-0.818,0.137-2.438,0.46-3.414c0.226-0.68,2.208-1.334,3.956-1.911c0.745-0.246,1.514-0.5,2.247-0.779
				C7.872,12.822,8,12.636,8,12.429v-2.5c0-0.198-0.123-0.379-0.303-0.459C7.648,9.447,6.5,8.915,6.5,6.929
				c0-0.276-0.182-0.486-0.458-0.486C6.007,6.414,5.913,6.241,5.913,5.929c0-0.312,0.095-0.485,0.087-0.5c0.276,0,0.5-0.224,0.5-0.5
				c0-0.125-0.038-0.255-0.112-0.514C6.272,4.018,5.921,2.806,6.225,2.477C6.32,2.372,6.568,2.352,6.901,2.419
				C7.165,2.471,7.42,2.31,7.485,2.049C7.634,1.452,8.823,1,10.25,1s2.616,0.451,2.765,1.049c0.208,0.837-0.159,1.761-0.356,2.257
				C12.556,4.562,12.5,4.704,12.5,4.857c0,0.276,0.175,0.484,0.451,0.484c0.037,0.03,0.136,0.217,0.136,0.552
				c0,0.334-0.1,0.521-0.087,0.535c-0.276,0-0.5,0.224-0.5,0.5c0,1.986-1.148,2.519-1.191,2.538C11.122,9.544,11,9.726,11,9.929v2.5
				c0,0.208,0.129,0.395,0.324,0.468c0.847,0.319,2.458,0.852,2.458,0.852s0.089-0.199,0.313-0.949
				c-0.665-0.22-1.373-0.454-2.095-0.718v-1.863c0.486-0.325,1.382-1.159,1.489-2.932c0.367-0.235,0.598-0.744,0.598-1.393
				c0-0.57-0.178-1.032-0.469-1.295c0.244-0.616,0.641-1.689,0.367-2.791C13.653,0.474,11.766,0,10.25,0
				C8.908,0,7.273,0.372,6.687,1.384C6.176,1.359,5.771,1.494,5.488,1.8C4.82,2.526,5.191,3.877,5.412,4.64
				C5.295,4.734,5.195,4.859,5.116,5.01C4.985,5.261,4.913,5.587,4.913,5.929c0,0.635,0.231,1.132,0.598,1.361
				C5.619,9.06,6.514,9.893,7,10.218v1.864c-0.621,0.227-1.261,0.438-1.883,0.643c-2.351,0.776-4.208,1.389-4.592,2.547
				C0.033,16.757,0.001,19.384,0,19.495c-0.001,0.133,0.051,0.262,0.145,0.356C0.239,19.947,0.367,20,0.5,20H11
				c0.276,0,0.5-0.224,0.5-0.5S11.276,19,11,19z"/>
		</g>
	</g>
	<g id="New_icons_1_">
	</g>
</g>
<g id="Invisible_Shape">
	<rect fill="none" width="24" height="24"/>
</g>
</svg>
