<?xml version="1.0" encoding="utf-8"?>
<!-- Generator: Adobe Illustrator 16.0.3, SVG Export Plug-In . SVG Version: 6.00 Build 0)  -->
<!DOCTYPE svg PUBLIC "-//W3C//DTD SVG 1.1//EN" "http://www.w3.org/Graphics/SVG/1.1/DTD/svg11.dtd">
<svg version="1.1" xmlns="http://www.w3.org/2000/svg" xmlns:xlink="http://www.w3.org/1999/xlink" x="0px" y="0px" width="24px"
	 height="24px" viewBox="0 0 24 24" enable-background="new 0 0 24 24" xml:space="preserve">
<g id="Outline_Icons_1_">
	<g id="Outline_Icons">
		<g>
			<path d="M14.5,19.021c-0.276,0-0.5,0.224-0.5,0.5V22H2V2h12v3.5C14,5.776,14.224,6,14.5,6S15,5.776,15,5.5v-4
				C15,1.224,14.776,1,14.5,1h-13C1.224,1,1,1.224,1,1.5v21C1,22.776,1.224,23,1.5,23h13c0.276,0,0.5-0.224,0.5-0.5v-2.979
				C15,19.244,14.776,19.021,14.5,19.021z"/>
			<path d="M22.854,12.139l-5-5c-0.195-0.195-0.512-0.195-0.707,0s-0.195,0.512,0,0.707L21.301,12H5.5C5.224,12,5,12.224,5,12.5
				S5.224,13,5.5,13h15.785l-4.139,4.139c-0.195,0.195-0.195,0.512,0,0.707s0.512,0.195,0.707,0l4.976-4.976
				C22.932,12.779,23,12.649,23,12.5c0-0.001-0.001-0.002-0.001-0.004C23,12.367,22.952,12.237,22.854,12.139z"/>
		</g>
	</g>
	<g id="New_icons_1_">
	</g>
</g>
<g id="Invisible_SHape">
	<rect fill="none" width="24" height="24"/>
</g>
</svg>
