<?xml version="1.0" encoding="utf-8"?>
<!-- Generator: Adobe Illustrator 16.0.3, SVG Export Plug-In . SVG Version: 6.00 Build 0)  -->
<!DOCTYPE svg PUBLIC "-//W3C//DTD SVG 1.1//EN" "http://www.w3.org/Graphics/SVG/1.1/DTD/svg11.dtd">
<svg version="1.1" xmlns="http://www.w3.org/2000/svg" xmlns:xlink="http://www.w3.org/1999/xlink" x="0px" y="0px" width="24px"
	 height="24px" viewBox="0 0 24 24" enable-background="new 0 0 24 24" xml:space="preserve">
<g id="Outline_Icons_1_">
	<g id="Outline_Icons">
	</g>
	<g id="New_icons_1_">
		<g>
			<path d="M23.5,3h-23C0.224,3,0,3.224,0,3.5v9C0,12.776,0.224,13,0.5,13H6v4.406C4.514,15.438,3.5,15,2.428,15
				c-0.506,0-0.911,0.232-1.139,0.655c-0.356,0.659-0.175,1.565,0.19,2.124l4.016,6C5.587,23.917,5.743,24,5.91,24h7.984
				c0.241,0,0.448-0.172,0.492-0.409l1.016-5.479c0.275-1.195-0.019-2.67-1.307-3.086L10,13.641V13h13.5c0.276,0,0.5-0.224,0.5-0.5
				v-9C24,3.224,23.776,3,23.5,3z M13.782,15.976c0.694,0.224,0.821,1.148,0.641,1.933L13.479,23H6.177l-3.864-5.774
				c-0.211-0.323-0.28-0.845-0.145-1.096C2.202,16.067,2.253,16,2.428,16c0.74,0,1.693,0.253,3.653,3.272
				c0.12,0.186,0.35,0.267,0.562,0.207C6.854,19.417,7,19.222,7,19V7.984C7,7.442,7.449,7,8,7s1,0.449,1,1v6
				c0,0.214,0.137,0.405,0.34,0.474L13.782,15.976z M23,12H10V8c0-1.103-0.897-2-2-2S6,6.89,6,7.984V12H1V4h22V12z"/>
			<path d="M16.646,10.354c0.195,0.195,0.512,0.195,0.707,0l4-4c0.195-0.195,0.195-0.512,0-0.707s-0.512-0.195-0.707,0L17,9.293
				l-1.646-1.646c-0.195-0.195-0.512-0.195-0.707,0s-0.195,0.512,0,0.707L16.646,10.354z"/>
		</g>
	</g>
</g>
<g id="Invisible_SHape">
	<rect fill="none" width="24" height="24"/>
</g>
</svg>
