<?xml version="1.0" encoding="utf-8"?>
<!-- Generator: Adobe Illustrator 20.0.0, SVG Export Plug-In . SVG Version: 6.00 Build 0)  -->
<svg version="1.1" id="Layer_1" xmlns="http://www.w3.org/2000/svg" xmlns:xlink="http://www.w3.org/1999/xlink" x="0px" y="0px"
	 viewBox="0 0 24 24" style="enable-background:new 0 0 24 24;" xml:space="preserve">
<style type="text/css">
	.st0{fill:none;}
</style>
<g id="Outline_Icons_1_">
	<g id="Outline_Icons">
	</g>
	<g id="New_icons_1_">
		<g>
			<path d="M23.5,2H20V0.5C20,0.2,19.8,0,19.5,0h-3C16.2,0,16,0.2,16,0.5V2H8V0.5C8,0.2,7.8,0,7.5,0h-3C4.2,0,4,0.2,4,0.5V2H0.5
				C0.2,2,0,2.2,0,2.5v21C0,23.8,0.2,24,0.5,24h23c0.3,0,0.5-0.2,0.5-0.5v-21C24,2.2,23.8,2,23.5,2z M17,1h2v3h-2V1z M5,1h2v3H5V1z
				 M4,3v1.5C4,4.8,4.2,5,4.5,5h3C7.8,5,8,4.8,8,4.5V3h8v1.5C16,4.8,16.2,5,16.5,5h3C19.8,5,20,4.8,20,4.5V3h3v4H1V3H4z M1,23V8h22
				v15H1z"/>
		</g>
	</g>
</g>
<g id="Invisible_Shape">
	<rect y="0" class="st0" width="24" height="24"/>
</g>
</svg>
