<?xml version="1.0" encoding="utf-8"?>
<!-- Generator: Adobe Illustrator 19.2.1, SVG Export Plug-In . SVG Version: 6.00 Build 0)  -->
<svg version="1.1" xmlns="http://www.w3.org/2000/svg" xmlns:xlink="http://www.w3.org/1999/xlink" x="0px" y="0px" width="24px"
	 height="24px" viewBox="0 0 24 24" enable-background="new 0 0 24 24" xml:space="preserve">
<g id="Outline_Icons_1_">
	<g id="Outline_Icons">
		<g>
			<path d="M19.499,10.977c-0.276,0-0.5,0.224-0.5,0.5v11.5h-18v-20h13.5c0.276,0,0.5-0.224,0.5-0.5c0-0.276-0.224-0.5-0.5-0.5h-14
				c-0.276,0-0.5,0.224-0.5,0.5v21c0,0.276,0.224,0.5,0.5,0.5h19c0.276,0,0.5-0.224,0.5-0.5v-12
				C19.999,11.201,19.775,10.977,19.499,10.977z"/>
			<path d="M23.854,2.997l-2.828-2.828c-0.195-0.195-0.512-0.195-0.707,0L9.642,10.846c-0.063,0.063-0.076,0.098-0.11,0.166
				l-2.117,4.941c-0.18,0.419,0.248,0.832,0.656,0.656c0.033-0.014,4.949-2.121,4.949-2.121c0.059-0.025,0.112-0.061,0.157-0.106
				L23.854,3.704C24.05,3.509,24.05,3.192,23.854,2.997z M12.823,13.322L10.702,11.2l8.135-8.135l2.121,2.121L12.823,13.322z
				 M10.164,12.076l1.784,1.785l-3.122,1.338L10.164,12.076z M21.666,4.479l-2.121-2.121l1.129-1.128l2.121,2.121L21.666,4.479z"/>
		</g>
	</g>
	<g id="New_icons_1_">
	</g>
</g>
<g id="Invisible_Shape">
	<rect fill="none" width="24" height="24"/>
</g>
</svg>
