<?xml version="1.0" encoding="utf-8"?>
<!-- Generator: Adobe Illustrator 16.0.3, SVG Export Plug-In . SVG Version: 6.00 Build 0)  -->
<!DOCTYPE svg PUBLIC "-//W3C//DTD SVG 1.1//EN" "http://www.w3.org/Graphics/SVG/1.1/DTD/svg11.dtd">
<svg version="1.1" xmlns="http://www.w3.org/2000/svg" xmlns:xlink="http://www.w3.org/1999/xlink" x="0px" y="0px" width="24px"
	 height="24px" viewBox="0 0 24 24" enable-background="new 0 0 24 24" xml:space="preserve">
<g id="Outline_Icons_1_">
	<g id="Outline_Icons">
		<g>
			<path d="M0.301,10.958l11.5,5C11.864,15.986,11.932,16,12,16s0.136-0.014,0.199-0.042l11.5-5c0.253-0.109,0.369-0.405,0.26-0.658
				c-0.11-0.252-0.406-0.37-0.658-0.259L12,14.955L0.699,10.042c-0.251-0.11-0.548,0.007-0.658,0.259
				C-0.068,10.554,0.048,10.849,0.301,10.958z"/>
			<path d="M23.301,13.042L12,17.955L0.699,13.042c-0.251-0.11-0.548,0.006-0.658,0.259c-0.109,0.253,0.007,0.548,0.26,0.658l11.5,5
				C11.864,18.986,11.932,19,12,19s0.136-0.014,0.199-0.042l11.5-5c0.253-0.109,0.369-0.405,0.26-0.658
				C23.849,13.047,23.553,12.931,23.301,13.042z"/>
			<path d="M23.301,16.042L12,20.955L0.699,16.042c-0.251-0.111-0.548,0.005-0.658,0.259c-0.109,0.253,0.007,0.548,0.26,0.658
				l11.5,5C11.864,21.986,11.932,22,12,22s0.136-0.014,0.199-0.042l11.5-5c0.253-0.109,0.369-0.405,0.26-0.658
				C23.849,16.047,23.553,15.931,23.301,16.042z"/>
			<path d="M0.301,7.958l11.5,5C11.864,12.986,11.932,13,12,13s0.136-0.014,0.199-0.042l11.5-5C23.882,7.879,24,7.699,24,7.5
				s-0.118-0.379-0.301-0.458l-11.5-5c-0.127-0.056-0.271-0.056-0.398,0l-11.5,5C0.118,7.121,0,7.301,0,7.5S0.118,7.879,0.301,7.958
				z M12,3.046L22.246,7.5L12,11.955L1.754,7.5L12,3.046z"/>
		</g>
	</g>
	<g id="New_icons_1_">
	</g>
</g>
<g id="Invisible_Shape">
	<rect fill="none" width="24" height="24"/>
</g>
</svg>
